<svg xmlns="http://www.w3.org/2000/svg" viewBox="0 0 1200 480" fill="none">
  <defs>
    <linearGradient id="sky" x1="600" y1="0" x2="600" y2="250" gradientUnits="userSpaceOnUse">
      <stop stop-color="#AACCE6"/>
      <stop offset="1" stop-color="#EFF6FB"/>
    </linearGradient>
  </defs>
  <rect width="1200" height="480" fill="#DCE6D9"/>
  <rect width="1200" height="250" fill="url(#sky)"/>
  <rect y="250" width="1200" height="230" fill="#A9BE9E"/>
  <rect x="224" y="164" width="380" height="136" rx="10" fill="#ECE7DD"/>
  <rect x="262" y="134" width="302" height="46" rx="8" fill="#7B7C80"/>
  <g fill="#8EB2C8">
    <rect x="252" y="198" width="60" height="56"/>
    <rect x="332" y="198" width="60" height="56"/>
    <rect x="412" y="198" width="60" height="56"/>
    <rect x="492" y="198" width="60" height="56"/>
  </g>
  <rect x="662" y="190" width="156" height="94" rx="8" fill="#A9ACB2"/>
  <rect x="840" y="152" width="44" height="132" fill="#8D919A"/>
  <path d="M824 166L862 118L900 166H824Z" fill="#6E7177"/>
  <path d="M104 308H1098V480H104V308Z" fill="#74836D"/>
  <rect x="148" y="324" width="240" height="124" rx="8" fill="#697569"/>
  <g stroke="#D9D4C6" stroke-width="8">
    <path d="M438 364H540"/>
    <path d="M570 364H672"/>
    <path d="M702 364H804"/>
    <path d="M834 364H936"/>
  </g>
</svg>
