<svg xmlns="http://www.w3.org/2000/svg" viewBox="0 0 1200 480" fill="none">
  <defs>
    <linearGradient id="sky" x1="600" y1="0" x2="600" y2="260" gradientUnits="userSpaceOnUse">
      <stop stop-color="#9ED7FF"/>
      <stop offset="1" stop-color="#E8F5FF"/>
    </linearGradient>
  </defs>
  <rect width="1200" height="480" fill="#D6E2CC"/>
  <rect width="1200" height="280" fill="url(#sky)"/>
  <path d="M0 284L156 222L304 256L446 196L592 244L736 210L890 268L1048 214L1200 248V480H0V284Z" fill="#76906F"/>
  <rect y="330" width="1200" height="150" fill="#6B845F"/>
  <g fill="#35553C">
    <path d="M104 348L142 272L180 348H104Z"/>
    <path d="M176 348L214 266L252 348H176Z"/>
    <path d="M922 348L960 262L998 348H922Z"/>
    <path d="M994 348L1032 272L1070 348H994Z"/>
  </g>
  <rect x="278" y="198" width="404" height="148" rx="10" fill="#F5EFE3"/>
  <path d="M248 222L482 134L720 222H248Z" fill="#73473B"/>
  <path d="M312 198L482 148L648 198H312Z" fill="#925A47"/>
  <g stroke="#6B4A3D" stroke-width="10">
    <path d="M332 220L332 346"/>
    <path d="M400 220L400 346"/>
    <path d="M468 220L468 346"/>
    <path d="M536 220L536 346"/>
    <path d="M604 220L604 346"/>
  </g>
  <g fill="#86AFC4">
    <rect x="350" y="244" width="58" height="56"/>
    <rect x="434" y="244" width="58" height="56"/>
    <rect x="518" y="244" width="58" height="56"/>
  </g>
  <rect x="742" y="266" width="220" height="48" rx="24" fill="#B8C2A0" opacity=".85"/>
</svg>
