<svg xmlns="http://www.w3.org/2000/svg" viewBox="0 0 1200 480" fill="none">
  <defs>
    <linearGradient id="sky" x1="600" y1="0" x2="600" y2="220" gradientUnits="userSpaceOnUse">
      <stop stop-color="#9AD7FF"/>
      <stop offset="1" stop-color="#EAF7FF"/>
    </linearGradient>
    <linearGradient id="sea" x1="600" y1="220" x2="600" y2="480" gradientUnits="userSpaceOnUse">
      <stop stop-color="#2EA2C7"/>
      <stop offset="1" stop-color="#0B6087"/>
    </linearGradient>
  </defs>
  <rect width="1200" height="220" fill="url(#sky)"/>
  <rect y="220" width="1200" height="260" fill="url(#sea)"/>
  <path d="M0 326C86 306 154 294 206 292C302 288 424 318 570 324C710 330 836 304 964 276C1050 258 1128 254 1200 262V480H0V326Z" fill="#F1D3A0"/>
  <rect x="96" y="170" width="334" height="96" rx="10" fill="#D8C0A3"/>
  <path d="M72 196L256 126L460 196H72Z" fill="#806254"/>
  <g fill="#7CB9D8">
    <rect x="130" y="200" width="56" height="42"/>
    <rect x="204" y="200" width="56" height="42"/>
    <rect x="278" y="200" width="56" height="42"/>
  </g>
  <g stroke="#8A6A58" stroke-width="10">
    <path d="M136 266V344"/>
    <path d="M214 266V350"/>
    <path d="M292 266V354"/>
    <path d="M370 266V344"/>
  </g>
  <path d="M610 356C676 344 760 340 862 340C980 340 1092 348 1200 368V480H610V356Z" fill="#E9D09C"/>
  <g fill="#BEEAF6" opacity=".65">
    <path d="M494 286C578 278 638 282 682 298"/>
    <path d="M514 318C608 308 676 314 734 334"/>
  </g>
</svg>
